<svg width="25" height="25" viewBox="0 0 25 25" fill="none" xmlns="http://www.w3.org/2000/svg">
<path fill-rule="evenodd" clip-rule="evenodd" d="M12.5 24C18.8513 24 24 18.8513 24 12.5C24 6.14873 18.8513 1 12.5 1C6.14873 1 1 6.14873 1 12.5C1 18.8513 6.14873 24 12.5 24Z" fill="white" stroke="#FBA627" stroke-width="2"/>
<path d="M11.76 14.64H13.28L13.488 6.88H11.552L11.76 14.64ZM13.728 16.944C13.728 16.288 13.216 15.776 12.576 15.776C11.92 15.776 11.408 16.288 11.408 16.944C11.408 17.6 11.92 18.112 12.576 18.112C13.216 18.112 13.728 17.6 13.728 16.944Z" fill="#FBA627"/>
</svg>
